<?xml version="1.0" encoding="utf-8"?>
<!-- Generator: Adobe Illustrator 19.2.0, SVG Export Plug-In . SVG Version: 6.00 Build 0)  -->
<svg version="1.1" id="Layer_1" xmlns="http://www.w3.org/2000/svg" xmlns:xlink="http://www.w3.org/1999/xlink" x="0px" y="0px"
	 viewBox="0 0 220 220" style="enable-background:new 0 0 220 220;" xml:space="preserve">
<style type="text/css">
	.st0{fill:none;}
	.st1{fill:#DF5B49;}
	.st2{fill:#454C51;}
	.st3{fill:#53C0AB;}
</style>
<g>
	<path class="st0" d="M63.6,213.5h25.1v-51.2l-25.1,25.1V213.5z"/>
	<path class="st0" d="M6.5,213.5h25.1v-51.2L6.5,187.3V213.5z"/>
	<path class="st0" d="M120.8,213.5h25.1v-54.7l-25.1-25.1V213.5z"/>
	<path class="st1" d="M104.4,60.3c-4.8,0-9.3,1.8-12.8,5.1c-0.7,0.7-1.9,0.7-2.6,0c-3.5-3.3-8-5.1-12.8-5.1
		c-12.5,0-18.6,6.1-18.6,18.6c0,14.1,28.4,36.9,32.7,38.5c4.3-1.7,32.7-24.8,32.7-38.5C123,66.4,116.9,60.3,104.4,60.3z"/>
	<g>
		<path class="st2" d="M104.4,56.5c-5.2,0-10.1,1.8-14.1,5c-4-3.2-8.9-5-14.1-5c-14.6,0-22.4,7.7-22.4,22.4
			c0,10.8,12.8,24.1,20.5,31.1c0.5,0.5,11.9,10.9,15.7,11.3v0c0,0,0.1,0,0.1,0c0,0,0,0,0.1,0c0.1,0,0.1,0,0.1,0l0,0
			c3.7-0.4,15-10.6,15.5-11c7.8-7,20.8-20.5,20.8-31.3C126.8,64.3,119.1,56.5,104.4,56.5z M90.3,117.4C86,115.8,57.7,93,57.7,78.9
			c0-12.5,6.1-18.6,18.6-18.6c4.8,0,9.3,1.8,12.8,5.1c0.7,0.7,1.9,0.7,2.6,0c3.5-3.3,8-5.1,12.8-5.1c12.5,0,18.6,6.1,18.6,18.6
			C123,92.7,94.7,115.8,90.3,117.4z"/>
		<path class="st2" d="M133.5,15.6c-0.9-0.6-2-0.3-2.6,0.6l-6.7,10.2c-0.6,0.9-0.3,2,0.6,2.6c0.3,0.2,0.7,0.3,1,0.3
			c0.6,0,1.2-0.3,1.6-0.9l6.7-10.2C134.6,17.3,134.3,16.1,133.5,15.6z"/>
		<path class="st2" d="M90.3,18.9c1,0,1.9-0.8,1.9-1.9V4.8c0-1-0.8-1.9-1.9-1.9s-1.9,0.8-1.9,1.9V17C88.4,18,89.3,18.9,90.3,18.9z"
			/>
		<path class="st2" d="M25.1,90.1L13,91.8c-1,0.1-1.7,1.1-1.6,2.1c0.1,0.9,0.9,1.6,1.9,1.6c0.1,0,0.2,0,0.3,0l12.1-1.7
			c1-0.1,1.7-1.1,1.6-2.1S26.1,90,25.1,90.1z"/>
		<path class="st2" d="M18.7,52l11.1,5.2c0.3,0.1,0.5,0.2,0.8,0.2c0.7,0,1.4-0.4,1.7-1.1c0.4-0.9,0-2.1-0.9-2.5l-11.1-5.2
			c-0.9-0.4-2.1,0-2.5,0.9C17.3,50.4,17.8,51.5,18.7,52z"/>
		<path class="st2" d="M167.6,91.8l-12.1-1.7c-1-0.1-2,0.6-2.1,1.6c-0.1,1,0.6,2,1.6,2.1l12.1,1.7c0.1,0,0.2,0,0.3,0
			c0.9,0,1.7-0.7,1.9-1.6C169.4,92.9,168.7,92,167.6,91.8z"/>
		<path class="st2" d="M42.1,124.4c-0.7-0.8-1.9-0.9-2.7-0.2l-9.2,8c-0.8,0.7-0.9,1.9-0.2,2.7c0.4,0.4,0.9,0.6,1.4,0.6
			c0.4,0,0.9-0.2,1.2-0.5l9.2-8c0.3-0.3,0.5-0.6,0.6-1c0.1-0.3,0.1-0.6,0-0.9C42.4,124.9,42.3,124.6,42.1,124.4z"/>
		<path class="st2" d="M55.9,29c0.9-0.6,1.1-1.7,0.6-2.6l-6.7-10.2c-0.6-0.9-1.7-1.1-2.6-0.6c-0.9,0.6-1.1,1.7-0.6,2.6l6.7,10.2
			c0.4,0.6,1,0.9,1.6,0.9C55.2,29.3,55.5,29.2,55.9,29z"/>
		<path class="st2" d="M162.8,49.4c-0.4-0.9-1.6-1.4-2.5-0.9l-11.1,5.2c-0.9,0.4-1.4,1.6-0.9,2.5c0.3,0.7,1,1.1,1.7,1.1
			c0.3,0,0.5-0.1,0.8-0.2l11.1-5.2C162.9,51.5,163.3,50.4,162.8,49.4z"/>
	</g>
	<g>
		<polygon class="st3" points="92.2,213.5 117.3,213.5 117.3,133.7 92.2,158.8 		"/>
		<polygon class="st3" points="35.1,213.5 60.2,213.5 60.2,187.3 35.1,162.2 		"/>
		<path class="st3" d="M159.5,148.7l-8.9,9.1c-0.2,0.2-0.3,0.3-0.5,0.4l-0.6,0.6v54.7h25.1v-79.8L159.5,148.7z"/>
	</g>
	<path class="st2" d="M217.6,86.8c-0.3-0.4-0.8-0.6-1.3-0.6l-21-1c-1-0.1-1.9,0.7-2,1.8c-0.1,1,0.7,1.9,1.8,2l16.8,0.8l-64.1,65.4
		c-0.1,0.1-0.2,0.3-0.3,0.4l-22.9-22.9l-4.4-4.4c-0.3-0.3-0.8-0.5-1.2-0.5s-0.9,0.2-1.2,0.5l-4.4,4.4l-51.5,51.5l-27.4-27.4
		c-0.3-0.3-0.8-0.5-1.2-0.5c-0.5,0-0.9,0.2-1.2,0.5L7.8,181.1l-1.3,1.2v0L3,185.8v29.5c0,1,0.8,1.7,1.7,1.7h171.5
		c1,0,1.7-0.8,1.7-1.7v-85.4L214.1,93l-0.8,16c-0.1,1,0.7,1.9,1.8,2c0,0,0.1,0,0.1,0c1,0,1.8-0.8,1.9-1.8l1-21
		C218.1,87.7,218,87.2,217.6,86.8z M31.6,213.5H6.5v-26.1l25.1-25.1V213.5z M60.2,213.5H35.1v-51.2l25.1,25.1V213.5z M174.5,133.7
		v79.8h-25.1v-54.7l0.6-0.6c0.2-0.1,0.4-0.2,0.5-0.4l8.9-9.1L174.5,133.7z M117.3,213.5H92.2v-54.7l25.1-25.1V213.5z M88.7,213.5
		H63.6v-26.1l25.1-25.1V213.5z M145.9,213.5h-25.1v-79.8l25.1,25.1V213.5z"/>
</g>
</svg>
