<?xml version="1.0" encoding="utf-8"?>
<!-- Generator: Adobe Illustrator 19.2.0, SVG Export Plug-In . SVG Version: 6.00 Build 0)  -->
<svg version="1.1" id="Layer_1" xmlns="http://www.w3.org/2000/svg" xmlns:xlink="http://www.w3.org/1999/xlink" x="0px" y="0px"
	 viewBox="0 0 220 220" style="enable-background:new 0 0 220 220;" xml:space="preserve">
<style type="text/css">
	.st0{fill:#EEC84C;}
	.st1{fill:#F89E3D;}
	.st2{fill:#454C51;}
</style>
<g>
	<g>
		<path class="st0" d="M125.5,50.7l13.7-10.1l-16.4-4.7c-0.5-0.1-0.9-0.5-1-1l-5.4-16.2l-9.6,14.1c-0.3,0.4-0.7,0.7-1.2,0.7
			l-17.1,0.1l10.5,13.5c0.3,0.4,0.4,0.9,0.2,1.4l-5.2,16.3l16-5.8c0.2-0.1,0.3-0.1,0.5-0.1c0.3,0,0.6,0.1,0.9,0.3l13.9,9.9L124.9,52
			C124.9,51.5,125.1,51,125.5,50.7z"/>
		<path class="st0" d="M45.5,197.3l41.1,6.5v-96.8l-41.1-6.5V197.3z M58.5,161.9c0.3-2.7,0.9-4.6,1-4.7c0.2-0.8,1.1-1.2,1.9-1
			c0.8,0.2,1.2,1.1,1,1.9c0,0-0.5,1.8-0.8,4.2c-0.1,0.8-0.7,1.3-1.5,1.3c-0.1,0-0.1,0-0.2,0C59,163.4,58.4,162.7,58.5,161.9z
			 M75.8,172.5c1.5-0.8,3-1.7,4.5-2.6c1.1-0.7,2.2-1.3,3.4-1.9c0.7-0.4,1.6-0.1,2.1,0.6c0.4,0.7,0.1,1.6-0.6,2.1
			c-1.1,0.6-2.2,1.3-3.3,1.9c-1.5,0.9-3.1,1.8-4.7,2.6c-0.2,0.1-0.5,0.2-0.7,0.2c-0.5,0-1.1-0.3-1.3-0.8
			C74.8,173.8,75.1,172.9,75.8,172.5z M69.4,176.3c-0.1,0.8-0.7,1.3-1.5,1.3c-0.1,0-0.1,0-0.2,0c-0.8-0.1-1.5-0.3-2.2-0.5
			c-2.8-1-4.8-2.9-6-5.6c-0.3-0.8,0-1.7,0.8-2c0.8-0.3,1.7,0,2,0.8c0.9,1.9,2.2,3.2,4.2,3.9c0.5,0.2,1,0.3,1.5,0.3
			C68.9,174.8,69.5,175.5,69.4,176.3z M54.9,143.4c-0.6-0.6-0.6-1.5,0-2.1c0.6-0.6,1.5-0.6,2.1,0l3.8,3.8l3.8-3.8
			c0.6-0.6,1.5-0.6,2.1,0c0.6,0.6,0.6,1.5,0,2.1l-3.8,3.8l3.8,3.8c0.6,0.6,0.6,1.5,0,2.1c-0.3,0.3-0.7,0.4-1.1,0.4
			c-0.4,0-0.8-0.1-1.1-0.4l-3.8-3.8l-3.8,3.8c-0.3,0.3-0.7,0.4-1.1,0.4s-0.8-0.1-1.1-0.4c-0.6-0.6-0.6-1.5,0-2.1l3.8-3.8L54.9,143.4
			z"/>
		<path class="st0" d="M133.7,100.5v20.8v3.9v16.1v3.7v52.4l41.1,6.5v-96.8L133.7,100.5z M149.8,116.4c-0.6-0.6-0.6-1.5,0-2.1
			c0.6-0.6,1.5-0.6,2.1,0l3.8,3.8l3.8-3.8c0.6-0.6,1.5-0.6,2.1,0c0.6,0.6,0.6,1.5,0,2.1l-3.8,3.8l3.8,3.8c0.6,0.6,0.6,1.5,0,2.1
			c-0.3,0.3-0.7,0.4-1.1,0.4c-0.4,0-0.8-0.1-1.1-0.4l-3.8-3.8l-3.8,3.8c-0.3,0.3-0.7,0.4-1.1,0.4s-0.8-0.1-1.1-0.4
			c-0.6-0.6-0.6-1.5,0-2.1l3.8-3.8L149.8,116.4z M147.4,131.5c0.3-0.8,1.2-1.1,2-0.8c0.8,0.3,1.1,1.2,0.8,2
			c-0.1,0.1-0.1,0.3-0.2,0.4c-0.5,1.2-1,2.5-1.3,3.6c-0.2,0.7-0.8,1.1-1.5,1.1c-0.1,0-0.3,0-0.4-0.1c-0.8-0.2-1.3-1.1-1-1.9
			c0.3-1.2,0.8-2.4,1.3-3.6C147.2,132.1,147.3,131.8,147.4,131.5z M145.5,184.8c-0.1,0-0.1,0-0.2,0c-3-0.3-6.2-1.1-9.7-2.1
			c-0.8-0.2-1.2-1.1-1-1.9c0.2-0.8,1.1-1.2,1.9-1c3.3,1,6.3,1.7,9.1,2c0.8,0.1,1.4,0.8,1.3,1.7C146.9,184.2,146.3,184.8,145.5,184.8
			z M152,155.6c-0.3,0.2-0.6,0.4-1,0.4c-0.4,0-0.8-0.2-1.1-0.5c-1-1.2-1.9-2.4-2.6-3.6c-0.7-1.3-1.3-2.6-1.7-3.9
			c-0.2-0.5-0.3-1.1-0.4-1.6c-0.2-0.8,0.4-1.6,1.2-1.8c0.8-0.2,1.6,0.4,1.8,1.2c0.3,1.3,0.7,2.5,1.3,3.7c0.7,1.3,1.5,2.6,2.6,3.9
			c0,0.1,0.1,0.1,0.1,0.2C152.7,154.1,152.7,155,152,155.6z M164.1,178.2c-2,3-4.9,5-8.6,6c-0.1,0-0.3,0.1-0.4,0.1
			c-0.7,0-1.3-0.4-1.5-1.1c-0.2-0.8,0.2-1.6,1-1.9c3-0.8,5.3-2.4,6.9-4.8c0.5-0.7,1.4-0.9,2.1-0.4
			C164.4,176.6,164.5,177.5,164.1,178.2z M165,169.6c-0.2,0.1-0.4,0.1-0.6,0.1c-0.6,0-1.1-0.3-1.4-0.9c-1-2.3-3.3-4.5-5.9-6.7
			c-0.6-0.5-0.7-1.5-0.2-2.1c0.5-0.6,1.5-0.7,2.1-0.2c2.8,2.4,5.5,4.9,6.7,7.8C166.1,168.4,165.7,169.3,165,169.6z"/>
	</g>
	<path class="st1" d="M120.6,102l-3,0.5l-8.6,1.4l-3,0.5l-4.8,0.8l-3.1,0.5l-8.5,1.3v96.8l41.1-6.5v-54.5v-3.8v-16.4v-4.2v-17.9
		L120.6,102z M98.7,167.8c-0.3,0.5-0.8,0.8-1.3,0.8c-0.2,0-0.5-0.1-0.7-0.2c-1.1-0.6-2.3-0.8-3.6-0.7c-0.8,0-1.5-0.6-1.6-1.4
		c-0.1-0.8,0.6-1.5,1.4-1.6c1.8-0.1,3.6,0.2,5.2,1C98.8,166.1,99.1,167,98.7,167.8z M117.9,179.6c0.6,0.6,0.6,1.5,0,2.1
		c-0.3,0.3-0.7,0.4-1.1,0.4c-0.4,0-0.8-0.1-1.1-0.4l-3.8-3.8l-3.8,3.8c-0.3,0.3-0.7,0.4-1.1,0.4c-0.4,0-0.8-0.1-1.1-0.4
		c-0.6-0.6-0.6-1.5,0-2.1l3.8-3.8l-3.8-3.8c-0.6-0.6-0.6-1.5,0-2.1c0.6-0.6,1.5-0.6,2.1,0l3.8,3.8l3.8-3.8c0.6-0.6,1.5-0.6,2.1,0
		c0.6,0.6,0.6,1.5,0,2.1l-3.8,3.8L117.9,179.6z M128.5,178.3c-0.3,0.6-0.8,0.9-1.4,0.9c-0.2,0-0.4,0-0.6-0.1c-2.5-1.1-4.1-2-4.2-2
		c-0.7-0.4-1-1.3-0.6-2c0.4-0.7,1.3-1,2-0.6c0,0,1.5,0.8,4,1.9C128.5,176.7,128.8,177.6,128.5,178.3z"/>
	<g>
		<path class="st2" d="M96.2,48.3l-5.8,18.4c-0.2,0.5,0,1.1,0.4,1.5c0.4,0.4,1,0.5,1.6,0.3l18.2-6.6l15.7,11.2
			c0.3,0.2,0.6,0.3,0.9,0.3c0.2,0,0.5-0.1,0.7-0.2c0.5-0.3,0.8-0.8,0.8-1.4L128,52.7l15.6-11.5c0.5-0.3,0.7-0.9,0.6-1.5
			c-0.1-0.6-0.5-1-1.1-1.2l-18.6-5.4l-6.1-18.3c-0.2-0.5-0.7-0.9-1.2-1c-0.6-0.1-1.1,0.2-1.5,0.6l-10.8,16l-19.3,0.1
			c-0.6,0-1.1,0.3-1.3,0.9c-0.3,0.5-0.2,1.1,0.2,1.6L96.2,48.3z M105.7,33.5c0.5,0,1-0.3,1.2-0.7l9.6-14.1l5.4,16.2
			c0.2,0.5,0.5,0.8,1,1l16.4,4.7l-13.7,10.1c-0.4,0.3-0.6,0.8-0.6,1.3l0.6,17.1l-13.9-9.9c-0.3-0.2-0.6-0.3-0.9-0.3
			c-0.2,0-0.3,0-0.5,0.1l-16,5.8l5.2-16.3c0.2-0.5,0.1-1-0.2-1.4L88.6,33.6L105.7,33.5z"/>
		<path class="st2" d="M176.5,104.2l-44.1-7c-0.1,0-0.2,0-0.2,0c-0.1,0-0.2,0-0.2,0l-12.2,1.9c-1.7-6.1-2.1-12.7-1-19.2
			c0.3-1.8,0.7-3.6,1.2-5.3c0.2-0.8-0.2-1.6-1-1.9c-0.8-0.2-1.6,0.2-1.9,1c-0.6,1.9-1,3.9-1.3,5.8c-1.1,6.9-0.7,13.7,1,20.1
			l-8.3,1.3c-1.3-7.4-1.2-15,0.2-22.4c0.4-2,0.9-4,1.5-6c0.2-0.8-0.2-1.6-1-1.9c-0.8-0.2-1.6,0.2-1.9,1c-0.6,2.1-1.1,4.3-1.6,6.4
			c-1.5,7.8-1.5,15.6-0.2,23.3l-5.4,0.9c-3-8-3.6-16.7-1.7-25.2c0.2-1,0.5-2,0.8-3c0.2-0.8-0.2-1.6-1-1.9c-0.8-0.2-1.6,0.2-1.9,1
			c-0.3,1.1-0.6,2.3-0.9,3.4c-1.9,8.9-1.2,17.9,1.7,26.1l-8.9,1.4l-43.9-6.9c-0.4-0.1-0.9,0.1-1.2,0.3c-0.3,0.3-0.5,0.7-0.5,1.1
			v99.9c0,0.7,0.5,1.4,1.3,1.5l44.1,7c0.1,0,0.2,0,0.2,0c0.1,0,0.2,0,0.2,0l43.9-6.9l43.9,6.9c0.1,0,0.2,0,0.2,0
			c0.4,0,0.7-0.1,1-0.4c0.3-0.3,0.5-0.7,0.5-1.1v-99.9C177.8,104.9,177.3,104.3,176.5,104.2z M86.6,203.7l-41.1-6.5v-96.8l41.1,6.5
			V203.7z M130.7,118.4v4.2v16.4v3.8v54.5l-41.1,6.5v-96.8l8.5-1.3l3.1-0.5l4.8-0.8l3-0.5l8.6-1.4l3-0.5l10.1-1.6V118.4z
			 M174.8,203.7l-41.1-6.5v-52.4v-3.7v-16.1v-3.9v-20.8l41.1,6.5V203.7z"/>
		<path class="st2" d="M149.8,126.2c0.3,0.3,0.7,0.4,1.1,0.4s0.8-0.1,1.1-0.4l3.8-3.8l3.8,3.8c0.3,0.3,0.7,0.4,1.1,0.4
			c0.4,0,0.8-0.1,1.1-0.4c0.6-0.6,0.6-1.5,0-2.1l-3.8-3.8l3.8-3.8c0.6-0.6,0.6-1.5,0-2.1c-0.6-0.6-1.5-0.6-2.1,0l-3.8,3.8l-3.8-3.8
			c-0.6-0.6-1.5-0.6-2.1,0c-0.6,0.6-0.6,1.5,0,2.1l3.8,3.8l-3.8,3.8C149.2,124.6,149.2,125.6,149.8,126.2z"/>
		<path class="st2" d="M54.9,153.2c0.3,0.3,0.7,0.4,1.1,0.4s0.8-0.1,1.1-0.4l3.8-3.8l3.8,3.8c0.3,0.3,0.7,0.4,1.1,0.4
			c0.4,0,0.8-0.1,1.1-0.4c0.6-0.6,0.6-1.5,0-2.1l-3.8-3.8l3.8-3.8c0.6-0.6,0.6-1.5,0-2.1c-0.6-0.6-1.5-0.6-2.1,0l-3.8,3.8l-3.8-3.8
			c-0.6-0.6-1.5-0.6-2.1,0c-0.6,0.6-0.6,1.5,0,2.1l3.8,3.8l-3.8,3.8C54.3,151.7,54.3,152.6,54.9,153.2z"/>
		<path class="st2" d="M117.9,169.8c-0.6-0.6-1.5-0.6-2.1,0l-3.8,3.8l-3.8-3.8c-0.6-0.6-1.5-0.6-2.1,0c-0.6,0.6-0.6,1.5,0,2.1
			l3.8,3.8l-3.8,3.8c-0.6,0.6-0.6,1.5,0,2.1c0.3,0.3,0.7,0.4,1.1,0.4c0.4,0,0.8-0.1,1.1-0.4l3.8-3.8l3.8,3.8
			c0.3,0.3,0.7,0.4,1.1,0.4c0.4,0,0.8-0.1,1.1-0.4c0.6-0.6,0.6-1.5,0-2.1l-3.8-3.8l3.8-3.8C118.5,171.3,118.5,170.4,117.9,169.8z"/>
		<path class="st2" d="M60,163.5c0.8,0,1.4-0.6,1.5-1.3c0.3-2.4,0.8-4.1,0.8-4.2c0.2-0.8-0.2-1.6-1-1.9c-0.8-0.3-1.6,0.2-1.9,1
			c0,0.1-0.6,2-1,4.7c-0.1,0.8,0.5,1.6,1.3,1.7C59.8,163.5,59.9,163.5,60,163.5z"/>
		<path class="st2" d="M76.5,175.4c0.2,0,0.5-0.1,0.7-0.2c1.6-0.8,3.1-1.7,4.7-2.6c1.1-0.7,2.2-1.3,3.3-1.9c0.7-0.4,1-1.3,0.6-2.1
			c-0.4-0.7-1.3-1-2.1-0.6c-1.1,0.6-2.2,1.3-3.4,1.9c-1.5,0.9-3,1.8-4.5,2.6c-0.7,0.4-1,1.3-0.6,2C75.5,175.1,76,175.4,76.5,175.4z"
			/>
		<path class="st2" d="M62.3,170.4c-0.3-0.8-1.2-1.1-2-0.8c-0.8,0.3-1.1,1.2-0.8,2c1.2,2.7,3.2,4.6,6,5.6c0.7,0.3,1.5,0.4,2.2,0.5
			c0.1,0,0.1,0,0.2,0c0.8,0,1.4-0.6,1.5-1.3c0.1-0.8-0.5-1.6-1.3-1.7c-0.5-0.1-1-0.2-1.5-0.3C64.5,173.6,63.1,172.3,62.3,170.4z"/>
		<path class="st2" d="M98,165.8c-1.6-0.8-3.3-1.1-5.2-1c-0.8,0.1-1.5,0.8-1.4,1.6c0,0.8,0.8,1.4,1.6,1.4c1.3-0.1,2.5,0.2,3.6,0.7
			c0.2,0.1,0.5,0.2,0.7,0.2c0.6,0,1.1-0.3,1.3-0.8C99.1,167,98.8,166.1,98,165.8z"/>
		<path class="st2" d="M122.3,177.1c0.1,0,1.6,0.9,4.2,2c0.2,0.1,0.4,0.1,0.6,0.1c0.6,0,1.1-0.3,1.4-0.9c0.3-0.8,0-1.7-0.8-2
			c-2.4-1.1-4-1.9-4-1.9c-0.7-0.4-1.6-0.1-2,0.6C121.3,175.7,121.6,176.7,122.3,177.1z"/>
		<path class="st2" d="M145.6,147.9c0.4,1.3,1,2.6,1.7,3.9c0.7,1.2,1.6,2.4,2.6,3.6c0.3,0.3,0.7,0.5,1.1,0.5c0.3,0,0.7-0.1,1-0.4
			c0.6-0.5,0.7-1.5,0.2-2.1c0-0.1-0.1-0.1-0.1-0.2c-1.1-1.3-1.9-2.6-2.6-3.9c-0.6-1.2-1.1-2.4-1.3-3.7c-0.2-0.8-1-1.3-1.8-1.2
			c-0.8,0.2-1.3,1-1.2,1.8C145.3,146.8,145.5,147.4,145.6,147.9z"/>
		<path class="st2" d="M159.1,159.9c-0.6-0.5-1.6-0.5-2.1,0.2c-0.5,0.6-0.5,1.6,0.2,2.1c2.5,2.2,4.9,4.3,5.9,6.7
			c0.2,0.6,0.8,0.9,1.4,0.9c0.2,0,0.4,0,0.6-0.1c0.8-0.3,1.1-1.2,0.8-2C164.5,164.7,161.9,162.3,159.1,159.9z"/>
		<path class="st2" d="M135.6,182.6c3.5,1.1,6.7,1.8,9.7,2.1c0.1,0,0.1,0,0.2,0c0.8,0,1.4-0.6,1.5-1.3c0.1-0.8-0.5-1.6-1.3-1.7
			c-2.8-0.3-5.9-1-9.1-2c-0.8-0.2-1.6,0.2-1.9,1C134.4,181.5,134.8,182.4,135.6,182.6z"/>
		<path class="st2" d="M161.6,176.5c-1.6,2.4-3.9,4-6.9,4.8c-0.8,0.2-1.3,1.1-1,1.9c0.2,0.7,0.8,1.1,1.5,1.1c0.1,0,0.3,0,0.4-0.1
			c3.7-1,6.6-3,8.6-6c0.5-0.7,0.3-1.6-0.4-2.1C163,175.6,162,175.8,161.6,176.5z"/>
		<path class="st2" d="M146.8,137.8c0.1,0,0.3,0.1,0.4,0.1c0.7,0,1.3-0.4,1.5-1.1c0.3-1.2,0.8-2.4,1.3-3.6c0.1-0.1,0.1-0.3,0.2-0.4
			c0.3-0.8,0-1.7-0.8-2c-0.8-0.3-1.7,0-2,0.8c-0.1,0.3-0.2,0.6-0.3,0.9c-0.5,1.2-0.9,2.4-1.3,3.6C145.6,136.8,146,137.6,146.8,137.8
			z"/>
	</g>
</g>
</svg>
