<?xml version="1.0" encoding="utf-8"?>
<!-- Generator: Adobe Illustrator 18.0.0, SVG Export Plug-In . SVG Version: 6.00 Build 0)  -->
<!DOCTYPE svg PUBLIC "-//W3C//DTD SVG 1.1//EN" "http://www.w3.org/Graphics/SVG/1.1/DTD/svg11.dtd">
<svg version="1.1" id="Schoolrunner" xmlns="http://www.w3.org/2000/svg" xmlns:xlink="http://www.w3.org/1999/xlink" x="0px"
	 y="0px" viewBox="0 0 800 170" enable-background="new 0 0 800 170" xml:space="preserve">
<g>
	<path fill="#F99E3E" d="M124.3,65c-15.9-15.9-41.8-15.9-57.8,0l-7.3,7.2c-1.9,1.9-5,1.9-6.9,0c-1.9-1.9-1.9-4.9,0-6.8l20.3-20.2
		l4.3-29.5l-29.6,3.8L27,40c-7.7,7.7-12,17.9-12,28.8c0,10.9,4.2,21.1,12,28.8c15.9,15.9,41.8,15.9,57.8,0l7.3-7.2
		c1.9-1.9,5-1.9,6.9,0c0.9,0.9,1.4,2.1,1.4,3.4s-0.5,2.5-1.4,3.4l-14.3,14.2l-2.5,2.5l0,0L67,128.9l25.5,25.4l11.8-11.7l0,0l5.8-5.8
		l14.3-14.2C140.2,106.7,140.2,80.8,124.3,65z M49.7,24l15.5-2l5.4,5.3L68.3,43L63,48.3l0-4l-7.4,0l0-7.3l-7.4,0l0-7.3l-4,0L49.7,24
		z M50.8,41.6l0,4l-9.1,9.1c-3.8,3.8-5.9,8.8-5.9,14.1c0,5.3,2.1,10.3,5.9,14.1c7.8,7.8,20.5,7.8,28.3,0l7.3-7.2
		c10-10,26.3-10,36.3,0c4.9,4.8,7.5,11.3,7.5,18.1c0,6.8-2.7,13.3-7.5,18.1l-16.7,16.7l-2-2l-2-2l16.7-16.7
		c3.8-3.8,5.9-8.8,5.9-14.1c0-5.3-2.1-10.3-5.9-14.1c-7.8-7.8-20.5-7.8-28.3,0L74,86.9c-5,5-11.6,7.5-18.2,7.5
		c-6.6,0-13.2-2.5-18.2-7.5c-4.9-4.8-7.5-11.3-7.5-18.1c0-6.8,2.7-13.3,7.5-18.1l9.1-9.1L50.8,41.6z M87.9,114.7l14.3-14.2
		c1.8-1.8,2.8-4.2,2.8-6.8s-1-5-2.8-6.8c-3.7-3.7-9.8-3.7-13.6,0l-7.3,7.2c-14.1,14-37,14-51.1,0c-6.8-6.8-10.6-15.8-10.6-25.4
		c0-9.6,3.8-18.6,10.6-25.4l9.1-9.1l4,0l0,4l-9.1,9c-5.7,5.7-8.9,13.3-8.9,21.4c0,8.1,3.2,15.7,8.9,21.4c11.9,11.8,31.2,11.8,43,0
		l7.3-7.2c6-5.9,15.6-5.9,21.6,0c2.9,2.9,4.5,6.7,4.5,10.8c0,4.1-1.6,7.9-4.5,10.8l-16.7,16.7l-4-4L87.9,114.7z M92.5,147.6
		l-18.7-18.7l8.4-8.4l9.4,9.3l9.4,9.3L92.5,147.6z M120.9,119.2l-14.3,14.2l-2.5,2.5l-4-4l16.7-16.7c5.7-5.7,8.9-13.3,8.9-21.4
		s-3.2-15.7-8.9-21.4c-11.9-11.8-31.2-11.8-43,0l-7.3,7.2c-6,5.9-15.6,5.9-21.6,0c-2.9-2.9-4.5-6.7-4.5-10.8c0-4.1,1.6-7.9,4.5-10.8
		l9.1-9.1l4.1,0l0,4L49.1,62c-3.7,3.7-3.7,9.8,0,13.5c3.7,3.7,9.8,3.7,13.6,0l7.3-7.2c14.1-14,37-14,51.1,0
		C135,82.3,135,105.2,120.9,119.2z"/>
	<g>
		<path fill="#96A0A5" d="M168.3,99.1l6.6-5.4c4,5,9.4,8.4,16.3,8.4c8.1,0,12.2-4.3,12.2-9.3c0-5.7-7.1-6.8-14.6-8.6
			c-8.7-2.1-18-4.9-18-15.5c0-8,7.6-15.7,19.7-15.7c8,0,15.9,2.9,20.6,8.3l-6.2,5.2c-3.7-4.1-8.3-6.4-14.4-6.4
			c-7.5,0-11.5,3.9-11.5,8.4c0,5.5,6.8,6.8,14.2,8.6c8.8,2.1,18.4,4.8,18.4,15.6c0,6.9-5.7,16.7-20.8,16.7
			C181.5,109.5,173.6,105.6,168.3,99.1z"/>
		<path fill="#96A0A5" d="M215.9,81.4c0-16.2,12.4-28.1,28.4-28.1c11.8,0,21.3,6.6,25.3,16.1l-7.6,3.2c-3.4-7.5-9.4-11.8-17.9-11.8
			c-11.4,0-19.8,9.2-19.8,20.6c0,11.4,8.6,20.6,20.2,20.6c9,0,14.8-5.4,17.9-12.6l7.7,3.2c-4.3,9.9-12.9,16.9-25.8,16.9
			C227.8,109.5,215.9,97,215.9,81.4z"/>
		<path fill="#96A0A5" d="M276.5,29.4h8.2v32.8c3.8-5.4,10.3-9,18.4-9c14.5,0,23.5,9.5,23.5,25.1v30.1h-8.4V78.3
			c0-10.5-5.4-17.5-16.2-17.5c-9.9,0-17.1,7.8-17.1,17.6v30h-8.3V29.4z"/>
		<path fill="#96A0A5" d="M332,81.4c0-15.9,12.4-28.1,28-28.1c15.6,0,28.1,12.2,28.1,28.1c0,15.9-12.6,28.1-28.1,28.1
			C344.4,109.5,332,97.3,332,81.4z M379.7,81.4c0-11.4-8.7-20.6-19.7-20.6c-11,0-19.6,9.2-19.6,20.6c0,11.4,8.6,20.6,19.6,20.6
			C371.1,101.9,379.7,92.7,379.7,81.4z"/>
		<path fill="#96A0A5" d="M392.6,81.4c0-15.9,12.5-28.1,28-28.1c15.6,0,28.1,12.2,28.1,28.1c0,15.9-12.6,28.1-28.1,28.1
			C405,109.5,392.6,97.3,392.6,81.4z M440.3,81.4c0-11.4-8.7-20.6-19.7-20.6c-11,0-19.6,9.2-19.6,20.6c0,11.4,8.6,20.6,19.6,20.6
			C431.7,101.9,440.3,92.7,440.3,81.4z"/>
		<path fill="#96A0A5" d="M455.5,29.4h8.4v79h-8.4V29.4z"/>
		<path fill="#96A0A5" d="M474.2,54.3h8.3v7.8c2.9-5,8.1-7.8,15-7.8h6.7v7.8h-6.7c-10.9,0-14.9,5.7-14.9,18.3v28h-8.4V54.3z"/>
		<path fill="#96A0A5" d="M510.9,84.4V54.3h8.4v30.1c0,10.5,5.4,17.5,16.2,17.5c9.9,0,17.1-7.8,17.1-17.6v-30h8.3v54.1h-8.2v-8
			c-3.8,5.5-10.2,9.1-18,9.1C519,109.5,510.9,100,510.9,84.4z"/>
		<path fill="#96A0A5" d="M569.7,54.3h8.2v8c3.8-5.5,10.3-9.1,18.4-9.1c14.5,0,23.5,9.5,23.5,25.1v30.1h-8.4V78.3
			c0-10.5-5.4-17.5-16.2-17.5c-9.9,0-17.1,7.8-17.1,17.6v30h-8.3V54.3z"/>
		<path fill="#96A0A5" d="M627.6,54.3h8.2v8c3.8-5.5,10.3-9.1,18.4-9.1c14.5,0,23.5,9.5,23.5,25.1v30.1h-8.4V78.3
			c0-10.5-5.4-17.5-16.2-17.5c-9.9,0-17.1,7.8-17.1,17.6v30h-8.3V54.3z"/>
		<path fill="#96A0A5" d="M683.2,81.8c0-16.2,11.8-28.6,28-28.6c15.6,0,27.7,10.7,27.7,27.3v3.6h-47.6c1.1,10.7,9.5,18,20.4,18
			c8.8,0,14.9-4.5,18.3-11.2l7.3,3.6c-5,9.4-13.4,15-25.5,15C694.5,109.5,683.2,97.7,683.2,81.8z M691.8,76.4h38.6
			c-1.5-9.7-8.7-15.7-19.2-15.7C701.5,60.7,694,67.3,691.8,76.4z"/>
		<path fill="#96A0A5" d="M744.9,54.3h8.3v7.8c2.9-5,8.1-7.8,15-7.8h6.7v7.8h-6.7c-10.9,0-14.9,5.7-14.9,18.3v28h-8.4V54.3z"/>
	</g>
</g>
</svg>
